<svg width="109" height="23" fill="none" xmlns="http://www.w3.org/2000/svg">
    <path d="m19.57 2.2-.93 3.99h-6.39L8.59 22H3.43L7.09 6.19H.64l.93-3.99h18ZM17.219 22 22.169.64h5.1l-2.25 9.78-.51.72c.26-.84.65-1.59 1.17-2.25.52-.66 1.17-1.19 1.95-1.59.78-.4 1.67-.6 2.67-.6s1.85.23 2.55.69c.72.46 1.22 1.11 1.5 1.95.3.84.32 1.84.06 3L32.159 22h-5.1l2.07-8.85c.18-.8.11-1.42-.21-1.86-.32-.46-.84-.69-1.56-.69-.54 0-1.02.13-1.44.39-.4.24-.75.61-1.05 1.11-.28.48-.5 1.08-.66 1.8l-1.89 8.1h-5.1Zm26.741.27c-1.48 0-2.78-.28-3.9-.84-1.12-.58-1.99-1.38-2.61-2.4-.62-1.02-.93-2.21-.93-3.57 0-1.68.34-3.17 1.02-4.47.7-1.32 1.68-2.36 2.94-3.12 1.28-.76 2.8-1.14 4.56-1.14 1.46 0 2.7.28 3.72.84 1.04.54 1.83 1.31 2.37 2.31s.81 2.18.81 3.54c0 .38-.02.78-.06 1.2-.04.42-.12.83-.24 1.23H39.82v-2.76h8.49l-1.41.78a4.222 4.222 0 0 0 .18-1.29c0-.52-.09-.95-.27-1.29a1.7 1.7 0 0 0-.75-.75c-.32-.18-.7-.27-1.14-.27-.72 0-1.32.17-1.8.51-.46.34-.83.79-1.11 1.35-.28.54-.48 1.13-.6 1.77-.1.64-.15 1.26-.15 1.86 0 .64.12 1.18.36 1.62.26.44.6.78 1.02 1.02.44.22.95.33 1.53.33.72 0 1.3-.16 1.74-.48.44-.34.78-.76 1.02-1.26l4.2 1.65c-.34.76-.87 1.41-1.59 1.95-.7.54-1.53.96-2.49 1.26-.94.28-1.97.42-3.09.42ZM55.15 22V2.2h9.63c2.44.02 4.24.49 5.4 1.41 1.16.9 1.74 2.21 1.74 3.93 0 1.12-.33 2.09-.99 2.91-.66.8-1.67 1.31-3.03 1.53v.03c1.52.2 2.65.73 3.39 1.59.76.84 1.14 1.86 1.14 3.06 0 1.7-.6 3.02-1.8 3.96-1.2.92-3 1.38-5.4 1.38H55.15Zm4.98-3.63h4.23c.94 0 1.64-.19 2.1-.57.46-.38.69-.93.69-1.65 0-.7-.23-1.23-.69-1.59-.46-.38-1.16-.57-2.1-.57h-4.23v4.38Zm0-8.07h3.75c1.84 0 2.76-.72 2.76-2.16 0-1.44-.92-2.16-2.76-2.16h-3.75v4.32ZM82.44 6.7c1.58 0 2.96.31 4.14.93 1.2.6 2.13 1.49 2.79 2.67.68 1.16 1.02 2.56 1.02 4.2 0 1.64-.34 3.05-1.02 4.23a6.654 6.654 0 0 1-2.79 2.67c-1.18.6-2.56.9-4.14.9-1.54 0-2.91-.3-4.11-.9a6.847 6.847 0 0 1-2.82-2.67c-.66-1.18-.99-2.59-.99-4.23 0-1.64.33-3.04.99-4.2a6.602 6.602 0 0 1 2.82-2.67c1.2-.62 2.57-.93 4.11-.93Zm0 3.63c-.58 0-1.08.14-1.5.42-.42.28-.74.73-.96 1.35-.22.62-.33 1.42-.33 2.4s.11 1.78.33 2.4c.22.6.54 1.05.96 1.35.42.28.92.42 1.5.42.6 0 1.11-.14 1.53-.42.42-.3.74-.75.96-1.35.22-.62.33-1.42.33-2.4s-.11-1.78-.33-2.4c-.22-.62-.54-1.07-.96-1.35-.42-.28-.93-.42-1.53-.42ZM96.847 7l3.66 6.75 1.68-.15 5.91 8.4h-5.85l-3.78-6.84h-1.77L90.967 7h5.88Zm11.13 0-5.67 8.1-1.89-.12-3.93 7.02h-5.73l6.03-8.46 1.74.24 3.72-6.78h5.73Z"
          fill="#2947A9"/>
</svg>