<svg width="38" height="38" fill="none" xmlns="http://www.w3.org/2000/svg">
    <path d="M34 12.333a3.333 3.333 0 0 1 3.333 3.334v6.666A3.334 3.334 0 0 1 34 25.667h-1.77A13.335 13.335 0 0 1 19 37.333V34a10 10 0 0 0 10-10V14a10 10 0 0 0-20 0v11.667H4a3.333 3.333 0 0 1-3.333-3.334v-6.666A3.334 3.334 0 0 1 4 12.333h1.77a13.335 13.335 0 0 1 26.46 0H34ZM11.933 25.308l1.767-2.826A9.954 9.954 0 0 0 19 24a9.954 9.954 0 0 0 5.3-1.518l1.767 2.826A13.271 13.271 0 0 1 19 27.333c-2.5.004-4.949-.698-7.067-2.025Z"
          fill="#F9995D"/>
</svg>